<?xml version="1.0" encoding="iso-8859-1"?>
<!-- Uploaded to: SVG Repo, www.svgrepo.com, Generator: SVG Repo Mixer Tools -->
<svg fill="#000000" height="800px" width="800px" version="1.1" id="Capa_1" xmlns="http://www.w3.org/2000/svg" xmlns:xlink="http://www.w3.org/1999/xlink" 
	 viewBox="0 0 511 511" xml:space="preserve">
<g>
	<path d="M111.5,318.934h-72c-4.142,0-7.5,3.358-7.5,7.5s3.358,7.5,7.5,7.5h72c4.142,0,7.5-3.358,7.5-7.5
		S115.642,318.934,111.5,318.934z"/>
	<path d="M111.5,294.934h-24c-4.142,0-7.5,3.358-7.5,7.5s3.358,7.5,7.5,7.5h24c4.142,0,7.5-3.358,7.5-7.5
		S115.642,294.934,111.5,294.934z"/>
	<path d="M39.5,309.934h24c4.142,0,7.5-3.358,7.5-7.5s-3.358-7.5-7.5-7.5h-24c-4.142,0-7.5,3.358-7.5,7.5
		S35.358,309.934,39.5,309.934z"/>
	<path d="M167.5,294.934h-24c-4.142,0-7.5,3.358-7.5,7.5s3.358,7.5,7.5,7.5h24c4.142,0,7.5-3.358,7.5-7.5
		S171.642,294.934,167.5,294.934z"/>
	<path d="M167.5,318.934h-24c-4.142,0-7.5,3.358-7.5,7.5s3.358,7.5,7.5,7.5h24c4.142,0,7.5-3.358,7.5-7.5
		S171.642,318.934,167.5,318.934z"/>
	<path d="M47.5,277.934h32c8.547,0,15.5-6.953,15.5-15.5v-16c0-8.547-6.953-15.5-15.5-15.5h-32c-8.547,0-15.5,6.953-15.5,15.5v16
		C32,270.981,38.953,277.934,47.5,277.934z M80,246.434v16c0,0.276-0.224,0.5-0.5,0.5H71v-17h8.5
		C79.776,245.934,80,246.159,80,246.434z M47,246.434c0-0.276,0.224-0.5,0.5-0.5H56v17h-8.5c-0.276,0-0.5-0.224-0.5-0.5V246.434z"/>
	<path d="M223,254.434c0-12.958-10.542-23.5-23.5-23.5h-16c-12.958,0-23.5,10.542-23.5,23.5s10.542,23.5,23.5,23.5h16
		C212.458,277.934,223,267.392,223,254.434z M175,254.434c0-4.687,3.813-8.5,8.5-8.5h16c4.687,0,8.5,3.813,8.5,8.5
		s-3.813,8.5-8.5,8.5h-16C178.813,262.934,175,259.121,175,254.434z"/>
	<path d="M495.5,174.934h-64c-8.177,0-14.877,6.368-15.444,14.403c-3.823-0.864-7.565-2.066-11.185-3.618l-79.859-34.225
		c-13.405-5.745-28.122-7.691-42.559-5.629l-75.612,10.802c-12.561,1.795-23.67,8.373-31.282,18.523l-11.809,15.745H23.5
		c-12.958,0-23.5,10.542-23.5,23.5v128c0,12.958,10.542,23.5,23.5,23.5h208c12.958,0,23.5-10.542,23.5-23.5v-16.5h44.312
		c19.582,0,38.84-3.393,57.242-10.084l35.019-12.734c7.935-2.885,16.12-5.11,24.428-6.645v5.963c0,8.547,6.953,15.5,15.5,15.5h64
		c8.547,0,15.5-6.953,15.5-15.5v-112C511,181.888,504.047,174.934,495.5,174.934z M240,342.434c0,4.687-3.813,8.5-8.5,8.5h-208
		c-4.687,0-8.5-3.813-8.5-8.5v-128c0-4.687,3.813-8.5,8.5-8.5h143.988c0.002,0,0.004,0,0.006,0c0.003,0,0.006,0,0.009,0H231.5
		c4.687,0,8.5,3.813,8.5,8.5v58.98l-19.257,3.209c-9.919,1.653-17.579,8.96-19.958,18.311H191.5c-4.142,0-7.5,3.358-7.5,7.5
		s3.358,7.5,7.5,7.5h10.126c3.566,9.343,12.617,16,23.198,16H240V342.434z M253.403,205.934h2.5c6.514,0,12.433,3.846,15.078,9.799
		l13.077,29.422c2.089,4.699,1.889,9.992-0.548,14.52c-2.437,4.529-6.744,7.611-11.817,8.456L255,270.914v-56.48
		C255,211.437,254.43,208.573,253.403,205.934z M386.446,289.019l-35.019,12.734c-16.754,6.092-34.288,9.181-52.116,9.181h-51.773
		c-0.013,0-0.025-0.002-0.039-0.002s-0.026,0.002-0.039,0.002h-22.637c-5.417,0-9.824-4.407-9.824-9.824
		c0-4.822,3.452-8.898,8.209-9.69l50.949-8.492c9.685-1.614,17.907-7.498,22.56-16.144c4.652-8.645,5.034-18.749,1.046-27.721
		l-13.077-29.422c-5.051-11.364-16.35-18.707-28.785-18.707H231.5h-49l5.059-6.745c5.208-6.945,12.81-11.445,21.403-12.673
		l75.611-10.802c11.713-1.672,23.653-0.094,34.529,4.567l79.859,34.225c5.484,2.35,11.193,4.059,17.038,5.125v76.623
		C405.941,282.943,396.026,285.535,386.446,289.019z M496,302.434c0,0.276-0.224,0.5-0.5,0.5h-64c-0.276,0-0.5-0.224-0.5-0.5V198.14
		c0-0.051,0.001-0.102,0-0.152v-7.553c0-0.276,0.224-0.5,0.5-0.5h64c0.276,0,0.5,0.224,0.5,0.5V302.434z"/>
	<path d="M455.5,270.934c-1.98,0-3.91,0.8-5.3,2.2c-1.4,1.39-2.2,3.33-2.2,5.3s0.8,3.91,2.2,5.3c1.39,1.4,3.33,2.2,5.3,2.2
		c1.97,0,3.91-0.8,5.3-2.2c1.4-1.39,2.2-3.33,2.2-5.3s-0.8-3.91-2.2-5.3C459.41,271.734,457.47,270.934,455.5,270.934z"/>
</g>
</svg>